<svg xmlns="http://www.w3.org/2000/svg" width="53" height="42" viewBox="0 0 53 42">
    <g fill="none" fill-rule="evenodd">
        <g>
            <g>
                <g>
                    <path fill="#FF6A70" d="M36.551 10.306H26.108v10.306h10.443c2.88 0 5.222 2.311 5.222 5.153 0 2.84-2.342 5.152-5.222 5.152H26.108l10.443 10.306h15.665l-4.588-4.527c2.835-2.798 4.588-6.663 4.588-10.931 0-8.538-7.013-15.46-15.665-15.46z" transform="translate(-60 -60) translate(60 60)"/>
                    <path fill="#003749" d="M15.665 10.306h10.443V0H15.665C7.013 0 0 6.92 0 15.459c0 8.537 7.013 15.458 15.665 15.458h10.443V20.612H15.665c-2.88 0-5.222-2.312-5.222-5.153 0-2.842 2.343-5.153 5.222-5.153" transform="translate(-60 -60) translate(60 60)"/>
                </g>
            </g>
        </g>
    </g>
</svg>
